<?xml version="1.0" encoding="UTF-8" standalone="no"?><!-- Generator: Gravit.io --><svg xmlns="http://www.w3.org/2000/svg" xmlns:xlink="http://www.w3.org/1999/xlink" style="isolation:isolate" viewBox="0 0 40 60" width="40pt" height="60pt"><defs><clipPath id="_clipPath_IdbHtPj53qFbcfDYmWOk3EiesCr98Rma"><rect width="40" height="60"/></clipPath></defs><g clip-path="url(#_clipPath_IdbHtPj53qFbcfDYmWOk3EiesCr98Rma)"><path d=" M 37.19 26.783 C 37.398 27.981 37.502 29.195 37.5 30.411 C 37.5 35.843 35.559 40.435 32.18 43.544 L 32.184 43.544 C 29.23 46.273 25.168 47.853 20.353 47.853 C 10.493 47.853 2.5 39.86 2.5 30.001 C 2.5 20.141 10.493 12.148 20.353 12.148 C 24.784 12.096 29.064 13.761 32.296 16.794 L 27.199 21.891 C 25.357 20.135 22.898 19.173 20.353 19.213 C 15.695 19.213 11.739 22.355 10.328 26.586 C 9.581 28.803 9.581 31.205 10.328 33.422 L 10.335 33.422 C 11.752 37.646 15.702 40.788 20.359 40.788 C 22.765 40.788 24.831 40.172 26.434 39.083 L 26.427 39.083 C 28.307 37.838 29.596 35.878 29.995 33.658 L 20.353 33.658 L 20.353 26.785 L 37.19 26.785 L 37.19 26.783 Z " fill="rgb(255,255,255)"/></g></svg>